<?xml version="1.0" standalone="no"?>
<!DOCTYPE svg PUBLIC "-//W3C//DTD SVG 20010904//EN"
 "http://www.w3.org/TR/2001/REC-SVG-20010904/DTD/svg10.dtd">
<svg version="1.0" xmlns="http://www.w3.org/2000/svg"
 width="250.000000pt" height="250.000000pt" viewBox="0 0 250.000000 250.000000"
 preserveAspectRatio="xMidYMid meet">

<g transform="translate(0.000000,250.000000) scale(0.100000,-0.100000)"
fill="#0058E7" stroke="none">
<path d="M900 1863 c-258 -33 -470 -245 -505 -503 -7 -51 -12 -59 -66 -108
-78 -71 -118 -152 -126 -256 -14 -184 81 -333 257 -403 42 -17 98 -18 755 -18
785 0 760 -2 864 65 70 45 122 114 151 200 30 87 24 202 -13 284 -35 77 -107
150 -184 188 -51 25 -69 40 -85 71 -30 59 -116 145 -173 175 -94 47 -192 63
-276 43 -35 -8 -37 -7 -77 45 -74 96 -193 173 -312 202 -56 14 -163 21 -210
15z m203 -153 c115 -36 220 -129 270 -240 11 -25 21 -47 23 -49 1 -1 27 9 57
24 106 51 233 30 321 -53 38 -36 86 -122 86 -153 0 -11 17 -20 55 -28 62 -14
127 -59 162 -110 88 -130 28 -314 -122 -377 -51 -21 -1409 -21 -1460 0 -57 24
-100 63 -131 118 -24 44 -29 65 -29 123 0 58 5 78 27 117 32 54 88 103 135
119 31 10 32 12 27 52 -15 109 50 272 141 355 56 51 139 98 198 112 63 15 173
11 240 -10z"/>
<path d="M779 1205 c-38 -21 -55 -67 -39 -105 16 -38 62 -63 100 -55 77 17 90
124 19 160 -34 18 -47 18 -80 0z"/>
<path d="M1179 1205 c-38 -21 -55 -67 -39 -105 16 -38 62 -63 100 -55 77 17
90 124 19 160 -34 18 -47 18 -80 0z"/>
<path d="M1579 1205 c-38 -21 -55 -67 -39 -105 16 -38 62 -63 100 -55 77 17
90 124 19 160 -34 18 -47 18 -80 0z"/>
</g>
</svg>
